<svg version="1.1" id="Layer_1" xmlns="http://www.w3.org/2000/svg" xmlns:xlink="http://www.w3.org/1999/xlink" x="0px" y="0px"
	 width="100%" viewBox="0 0 730 854" enable-background="new 0 0 730 854" xml:space="preserve">
<path fill="#FFFFFF" opacity="1.000000" stroke="none" 
	d="
M291.000000,855.000000 
	C194.351959,855.000000 97.703911,855.000000 1.027933,855.000000 
	C1.027933,570.406799 1.027933,285.813599 1.027933,1.110191 
	C244.212952,1.110191 487.425964,1.110191 731.000000,1.110191 
	C731.000000,107.025558 731.000000,213.051514 730.596680,319.378540 
	C729.129883,313.137268 728.249695,306.558136 726.944641,300.064331 
	C725.905518,294.893280 724.175171,289.863831 723.056885,284.705383 
	C720.870911,274.621918 715.646240,265.931061 711.250671,256.778778 
	C707.356995,248.671814 702.876282,241.198486 697.095276,234.409988 
	C692.725403,229.278580 688.706299,223.792862 683.920715,219.085358 
	C678.227234,213.484756 672.166687,208.161057 665.748352,203.416534 
	C656.750793,196.765457 647.509827,190.370529 637.922180,184.617294 
	C631.772522,180.927109 624.921021,178.304626 618.188538,175.711441 
	C607.890198,171.744766 597.440491,168.166351 587.009766,164.553558 
	C585.353210,163.979813 583.291199,164.488480 581.703918,163.817322 
	C571.928345,159.683746 561.556152,158.384323 551.085693,156.677826 
	C549.000977,153.428421 546.888306,150.623276 545.042114,147.652618 
	C539.292114,138.400696 534.123779,128.743317 527.816101,119.894554 
	C521.804077,111.460480 514.939575,103.572067 507.904266,95.947151 
	C501.183777,88.663414 493.883698,81.894691 486.596191,75.161766 
	C482.675354,71.539299 478.372955,68.289452 474.020813,65.182327 
	C463.758881,57.855976 453.527283,50.464550 442.959625,43.597740 
	C436.915039,39.669975 430.326569,36.532326 423.821808,33.370502 
	C413.762817,28.481096 403.735931,23.452036 393.371307,19.289326 
	C385.671844,16.197004 377.555634,13.958344 369.449707,12.107371 
	C358.735199,9.660730 347.757843,8.355261 337.059540,5.850023 
	C322.511383,2.443262 307.815552,1.915007 292.545959,2.093892 
	C284.822205,2.339293 277.560242,2.608682 270.303802,2.985489 
	C256.769928,3.688266 243.375626,5.281288 230.263870,8.938406 
	C224.402252,10.573327 218.414108,11.756557 212.478149,13.122107 
	C209.817703,13.734136 207.034760,13.993924 204.499039,14.931733 
	C198.613907,17.108299 192.957764,19.943031 187.006516,21.893873 
	C173.929764,26.180475 161.614166,32.142193 149.876663,39.130035 
	C131.563019,50.032940 113.522934,61.451206 97.995674,76.263130 
	C91.138947,82.803986 84.242676,89.384460 78.103310,96.577652 
	C68.418861,107.924454 57.756550,118.492241 50.424149,131.781525 
	C44.300907,142.879318 36.932972,153.299805 30.988430,164.483810 
	C26.040453,173.792923 22.060223,183.659256 18.235052,193.505524 
	C16.090195,199.026566 15.035526,204.985580 13.658172,210.787262 
	C11.011713,221.934631 8.390738,233.089966 5.959590,244.285522 
	C5.097607,248.254990 4.646131,252.336914 4.312568,256.392609 
	C3.745598,263.286224 3.405830,270.198883 3.004528,277.105499 
	C2.907999,278.766846 2.960919,280.436340 2.917318,282.101379 
	C2.622547,293.357910 1.936449,304.622375 2.173609,315.867462 
	C2.302735,321.990021 4.526695,328.049255 4.877023,334.190063 
	C5.735559,349.239075 8.783808,363.891266 12.037724,378.521301 
	C14.225973,388.360016 16.352169,398.231232 19.079357,407.926666 
	C22.559196,420.297852 26.157867,432.673492 30.548750,444.740326 
	C35.389484,458.043396 41.043732,471.059540 46.615364,484.084442 
	C50.484329,493.128998 54.900402,501.937866 58.907627,510.925385 
	C62.115181,518.119324 64.751648,525.582947 68.227623,532.638184 
	C72.500359,541.310608 77.397987,549.674377 81.997025,558.186951 
	C89.545593,572.159058 96.773819,586.314819 104.695236,600.071777 
	C111.744469,612.313904 119.603874,624.087524 127.000092,636.132751 
	C130.555695,641.923340 133.620926,648.025635 137.347031,653.698547 
	C143.122772,662.492004 149.310455,671.013977 155.255463,679.697571 
	C160.929230,687.984985 166.346359,696.453186 172.182861,704.622803 
	C179.975418,715.530518 187.959427,726.305847 196.052689,736.993103 
	C205.559067,749.546387 215.255707,761.955872 224.900070,774.404297 
	C229.241287,780.007690 233.635696,785.570312 238.041870,791.122925 
	C245.153244,800.084534 252.144119,809.147827 259.468597,817.932495 
	C265.746613,825.461975 272.420715,832.661255 279.029816,840.291138 
	C279.750305,841.093872 280.360626,841.612061 281.027100,842.357788 
	C281.262939,842.879395 281.525055,843.027222 281.930969,843.378296 
	C283.310486,844.846252 284.628693,845.964783 285.969177,847.046265 
	C285.991486,847.009155 285.916199,847.051758 285.951233,847.412781 
	C286.981903,848.865234 287.977539,849.956604 288.982330,851.028809 
	C288.991486,851.009644 288.954559,851.033813 288.988708,851.367310 
	C289.681946,852.800598 290.340973,853.900269 291.000000,855.000000 
z"/>
<path fill="#DA4300" opacity="1.000000" stroke="none" 
	d="
M293.010193,2.166354 
	C307.815552,1.915007 322.511383,2.443262 337.059540,5.850023 
	C347.757843,8.355261 358.735199,9.660730 369.449707,12.107371 
	C377.555634,13.958344 385.671844,16.197004 393.371307,19.289326 
	C403.735931,23.452036 413.762817,28.481096 423.821808,33.370502 
	C430.326569,36.532326 436.915039,39.669975 442.959625,43.597740 
	C453.527283,50.464550 463.758881,57.855976 474.020813,65.182327 
	C478.372955,68.289452 482.675354,71.539299 486.596191,75.161766 
	C493.883698,81.894691 501.183777,88.663414 507.904266,95.947151 
	C514.939575,103.572067 521.804077,111.460480 527.816101,119.894554 
	C534.123779,128.743317 539.292114,138.400696 545.042114,147.652618 
	C546.888306,150.623276 549.000977,153.428421 551.057861,157.036301 
	C552.599304,160.902390 554.243896,163.974350 555.520691,167.192215 
	C561.003296,181.009125 567.409790,194.571167 571.513245,208.793411 
	C575.989441,224.307266 578.953247,240.349167 581.339478,256.345398 
	C583.263123,269.240906 583.944092,282.403290 584.110229,295.460846 
	C584.376892,316.417877 582.356750,337.293365 578.039551,357.801270 
	C573.710388,378.366180 568.981934,398.878052 563.463379,419.150482 
	C559.915039,432.185516 555.145874,444.960754 550.002014,457.473450 
	C540.058105,481.662720 529.944580,505.806885 518.974243,529.541199 
	C511.140564,546.489258 502.189148,562.960693 493.019073,579.240723 
	C482.286621,598.294556 471.036316,617.071472 459.518585,635.663574 
	C450.472168,650.266541 440.885193,664.548401 431.165466,678.717102 
	C417.795319,698.207092 404.416290,717.708374 390.400391,736.732788 
	C377.758728,753.891968 364.524567,770.635681 351.061157,787.163086 
	C335.160461,806.682556 318.699707,825.745178 302.568970,845.078674 
	C300.117249,848.017151 298.137085,851.349182 295.999237,854.618835 
	C296.059662,854.738525 296.000000,855.000000 296.000000,855.000000 
	C294.611115,855.000000 293.222198,855.000000 291.416656,855.000000 
	C290.340973,853.900269 289.681946,852.800598 289.336731,851.384949 
	C290.669189,851.463318 291.687836,851.857666 292.999756,852.365479 
	C292.999756,728.059326 292.999756,604.147766 293.462677,480.161926 
	C309.372131,480.229065 324.617706,478.562622 339.561920,474.631683 
	C354.449707,470.715576 368.812622,465.310852 382.251190,457.780273 
	C390.599091,453.102325 399.245483,448.560394 406.539429,442.492645 
	C417.061676,433.739319 427.315887,424.364746 436.128418,413.939850 
	C444.828430,403.648102 452.230957,392.092377 459.043793,380.415039 
	C467.404572,366.084442 473.305756,350.515961 476.328857,334.146057 
	C478.665741,321.492126 481.178192,308.660278 481.373291,295.873352 
	C481.628510,279.150848 479.708801,262.491516 475.298096,246.071487 
	C471.116150,230.503204 465.429199,215.701645 457.764832,201.641785 
	C443.240479,174.997650 423.022217,153.330139 398.039337,136.355057 
	C378.819000,123.295395 357.630646,113.955040 334.833557,109.277596 
	C322.474457,106.741791 309.675629,106.344223 297.071838,105.013588 
	C295.751434,104.874184 294.408508,104.948219 293.056061,104.702362 
	C293.036102,104.481499 292.970795,104.042801 292.980255,103.571548 
	C292.996521,69.455650 293.003357,35.811001 293.010193,2.166354 
z"/>
<path fill="#FFFFFF" opacity="1.000000" stroke="none" 
	d="
M296.463867,855.000000 
	C296.000000,855.000000 296.059662,854.738525 296.330200,854.388000 
	C297.392792,853.869263 298.380859,853.946716 298.946777,853.495117 
	C304.925446,848.723633 310.630280,843.581909 316.821320,839.110840 
	C323.882599,834.011108 331.571228,829.776733 338.602936,824.640137 
	C346.980316,818.520630 354.955933,811.850403 363.093536,805.403564 
	C369.582703,800.262634 376.038818,795.079956 382.540680,789.955261 
	C384.944519,788.060608 387.561371,786.420776 389.860413,784.412170 
	C393.304535,781.403015 396.363647,777.932312 399.929688,775.088318 
	C405.621613,770.548706 411.811798,766.621826 417.395538,761.961731 
	C424.459991,756.065735 430.983154,749.523743 438.006042,743.574768 
	C445.504852,737.222717 453.479187,731.429993 460.944397,725.040710 
	C469.637177,717.600891 478.040558,709.820129 486.496704,702.107544 
	C491.632385,697.423340 496.677917,692.637329 501.675446,687.805603 
	C505.845245,683.774048 509.778198,679.493958 514.009949,675.530945 
	C520.235840,669.700439 526.764893,664.190552 532.925537,658.294067 
	C540.233215,651.299683 547.310486,644.063477 554.444275,636.888916 
	C561.988525,629.301453 569.628296,621.801147 576.953552,614.006287 
	C583.596924,606.936951 589.865051,599.515320 596.313660,592.262329 
	C603.875977,583.756775 611.500183,575.305847 619.008118,566.752686 
	C623.155273,562.028076 627.100952,557.127075 631.172791,552.335693 
	C633.671936,549.394897 636.454529,546.669250 638.723267,543.564392 
	C642.147034,538.878906 645.069519,533.826782 648.497314,529.144470 
	C655.233521,519.942993 662.530457,511.133270 668.935730,501.712952 
	C677.278625,489.442963 685.587952,477.075043 692.791504,464.126099 
	C700.440674,450.376038 707.179688,436.073608 713.538513,421.669128 
	C717.335388,413.068207 719.669739,403.818024 722.579712,394.833221 
	C723.023376,393.463501 722.894775,391.917664 723.249878,390.508453 
	C725.128052,383.054230 727.331482,375.671387 728.913574,368.156738 
	C730.028809,362.859528 730.333435,357.391663 731.000000,352.000000 
	C731.000000,519.590149 731.000000,687.180298 731.000000,855.000000 
	C586.309326,855.000000 441.618561,855.000000 296.463867,855.000000 
z"/>
<path fill="#020000" opacity="1.000000" stroke="none" 
	d="
M731.000000,351.531342 
	C730.333435,357.391663 730.028809,362.859528 728.913574,368.156738 
	C727.331482,375.671387 725.128052,383.054230 723.249878,390.508453 
	C722.894775,391.917664 723.023376,393.463501 722.579712,394.833221 
	C719.669739,403.818024 717.335388,413.068207 713.538513,421.669128 
	C707.179688,436.073608 700.440674,450.376038 692.791504,464.126099 
	C685.587952,477.075043 677.278625,489.442963 668.935730,501.712952 
	C662.530457,511.133270 655.233521,519.942993 648.497314,529.144470 
	C645.069519,533.826782 642.147034,538.878906 638.723267,543.564392 
	C636.454529,546.669250 633.671936,549.394897 631.172791,552.335693 
	C627.100952,557.127075 623.155273,562.028076 619.008118,566.752686 
	C611.500183,575.305847 603.875977,583.756775 596.313660,592.262329 
	C589.865051,599.515320 583.596924,606.936951 576.953552,614.006287 
	C569.628296,621.801147 561.988525,629.301453 554.444275,636.888916 
	C547.310486,644.063477 540.233215,651.299683 532.925537,658.294067 
	C526.764893,664.190552 520.235840,669.700439 514.009949,675.530945 
	C509.778198,679.493958 505.845245,683.774048 501.675446,687.805603 
	C496.677917,692.637329 491.632385,697.423340 486.496704,702.107544 
	C478.040558,709.820129 469.637177,717.600891 460.944397,725.040710 
	C453.479187,731.429993 445.504852,737.222717 438.006042,743.574768 
	C430.983154,749.523743 424.459991,756.065735 417.395538,761.961731 
	C411.811798,766.621826 405.621613,770.548706 399.929688,775.088318 
	C396.363647,777.932312 393.304535,781.403015 389.860413,784.412170 
	C387.561371,786.420776 384.944519,788.060608 382.540680,789.955261 
	C376.038818,795.079956 369.582703,800.262634 363.093536,805.403564 
	C354.955933,811.850403 346.980316,818.520630 338.602936,824.640137 
	C331.571228,829.776733 323.882599,834.011108 316.821320,839.110840 
	C310.630280,843.581909 304.925446,848.723633 298.946777,853.495117 
	C298.380859,853.946716 297.392792,853.869263 296.269775,854.268311 
	C298.137085,851.349182 300.117249,848.017151 302.568970,845.078674 
	C318.699707,825.745178 335.160461,806.682556 351.061157,787.163086 
	C364.524567,770.635681 377.758728,753.891968 390.400391,736.732788 
	C404.416290,717.708374 417.795319,698.207092 431.165466,678.717102 
	C440.885193,664.548401 450.472168,650.266541 459.518585,635.663574 
	C471.036316,617.071472 482.286621,598.294556 493.019073,579.240723 
	C502.189148,562.960693 511.140564,546.489258 518.974243,529.541199 
	C529.944580,505.806885 540.058105,481.662720 550.002014,457.473450 
	C555.145874,444.960754 559.915039,432.185516 563.463379,419.150482 
	C568.981934,398.878052 573.710388,378.366180 578.039551,357.801270 
	C582.356750,337.293365 584.376892,316.417877 584.110229,295.460846 
	C583.944092,282.403290 583.263123,269.240906 581.339478,256.345398 
	C578.953247,240.349167 575.989441,224.307266 571.513245,208.793411 
	C567.409790,194.571167 561.003296,181.009125 555.520691,167.192215 
	C554.243896,163.974350 552.599304,160.902390 551.151855,157.404846 
	C561.556152,158.384323 571.928345,159.683746 581.703918,163.817322 
	C583.291199,164.488480 585.353210,163.979813 587.009766,164.553558 
	C597.440491,168.166351 607.890198,171.744766 618.188538,175.711441 
	C624.921021,178.304626 631.772522,180.927109 637.922180,184.617294 
	C647.509827,190.370529 656.750793,196.765457 665.748352,203.416534 
	C672.166687,208.161057 678.227234,213.484756 683.920715,219.085358 
	C688.706299,223.792862 692.725403,229.278580 697.095276,234.409988 
	C702.876282,241.198486 707.356995,248.671814 711.250671,256.778778 
	C715.646240,265.931061 720.870911,274.621918 723.056885,284.705383 
	C724.175171,289.863831 725.905518,294.893280 726.944641,300.064331 
	C728.249695,306.558136 729.129883,313.137268 730.596680,319.839783 
	C731.000000,330.354218 731.000000,340.708466 731.000000,351.531342 
z"/>
<path fill="#F45900" opacity="1.000000" stroke="none" 
	d="
M292.999756,480.236206 
	C292.999756,604.147766 292.999756,728.059326 292.999756,852.365479 
	C291.687836,851.857666 290.669189,851.463318 289.302551,851.051392 
	C288.954559,851.033813 288.991486,851.009644 288.975128,850.671631 
	C287.944580,849.239685 286.930389,848.145752 285.916199,847.051758 
	C285.916199,847.051758 285.991486,847.009155 285.962769,846.689880 
	C284.579285,845.256653 283.224487,844.142761 281.869690,843.028870 
	C281.525055,843.027222 281.262939,842.879395 281.035492,842.043457 
	C280.298370,841.003235 279.608978,840.504883 278.919617,840.006592 
	C272.420715,832.661255 265.746613,825.461975 259.468597,817.932495 
	C252.144119,809.147827 245.153244,800.084534 238.041870,791.122925 
	C233.635696,785.570312 229.241287,780.007690 224.900070,774.404297 
	C215.255707,761.955872 205.559067,749.546387 196.052689,736.993103 
	C187.959427,726.305847 179.975418,715.530518 172.182861,704.622803 
	C166.346359,696.453186 160.929230,687.984985 155.255463,679.697571 
	C149.310455,671.013977 143.122772,662.492004 137.347031,653.698547 
	C133.620926,648.025635 130.555695,641.923340 127.000092,636.132751 
	C119.603874,624.087524 111.744469,612.313904 104.695236,600.071777 
	C96.773819,586.314819 89.545593,572.159058 81.997025,558.186951 
	C77.397987,549.674377 72.500359,541.310608 68.227623,532.638184 
	C64.751648,525.582947 62.115181,518.119324 58.907627,510.925385 
	C54.900402,501.937866 50.484329,493.128998 46.615364,484.084442 
	C41.043732,471.059540 35.389484,458.043396 30.548750,444.740326 
	C26.157867,432.673492 22.559196,420.297852 19.079357,407.926666 
	C16.352169,398.231232 14.225973,388.360016 12.037724,378.521301 
	C8.783808,363.891266 5.735559,349.239075 4.877023,334.190063 
	C4.526695,328.049255 2.302735,321.990021 2.173609,315.867462 
	C1.936449,304.622375 2.622547,293.357910 2.917318,282.101379 
	C2.960919,280.436340 2.907999,278.766846 3.004528,277.105499 
	C3.405830,270.198883 3.745598,263.286224 4.312568,256.392609 
	C4.646131,252.336914 5.097607,248.254990 5.959590,244.285522 
	C8.390738,233.089966 11.011713,221.934631 13.658172,210.787262 
	C15.035526,204.985580 16.090195,199.026566 18.235052,193.505524 
	C22.060223,183.659256 26.040453,173.792923 30.988430,164.483810 
	C36.932972,153.299805 44.300907,142.879318 50.424149,131.781525 
	C57.756550,118.492241 68.418861,107.924454 78.103310,96.577652 
	C84.242676,89.384460 91.138947,82.803986 97.995674,76.263130 
	C113.522934,61.451206 131.563019,50.032940 149.876663,39.130035 
	C161.614166,32.142193 173.929764,26.180475 187.006516,21.893873 
	C192.957764,19.943031 198.613907,17.108299 204.499039,14.931733 
	C207.034760,13.993924 209.817703,13.734136 212.478149,13.122107 
	C218.414108,11.756557 224.402252,10.573327 230.263870,8.938406 
	C243.375626,5.281288 256.769928,3.688266 270.303802,2.985489 
	C277.560242,2.608682 284.822205,2.339293 292.545959,2.093892 
	C293.003357,35.811001 292.996521,69.455650 292.685120,103.666862 
	C278.951263,105.841873 265.371063,106.687149 252.141251,109.303856 
	C241.834335,111.342445 231.685394,114.926521 221.973282,119.025246 
	C211.258087,123.547295 200.845261,128.973450 190.829666,134.899719 
	C184.120499,138.869568 177.900040,143.941238 172.229248,149.328629 
	C162.520004,158.552658 152.805588,167.900940 144.215942,178.138885 
	C134.800430,189.361191 127.186195,201.969330 122.022606,215.839310 
	C118.438156,225.467575 114.215950,234.954651 111.722092,244.867920 
	C108.718132,256.808868 106.242119,269.060211 105.333534,281.310425 
	C103.858238,301.201355 106.430626,320.948425 111.720673,340.197479 
	C115.357643,353.431366 119.281677,366.653259 126.624222,378.458496 
	C133.803787,390.001740 140.305557,402.109924 148.664856,412.743805 
	C162.591644,430.460144 180.091705,444.573059 199.711655,455.578033 
	C219.235168,466.528961 240.103760,474.508881 262.371063,477.816986 
	C272.460480,479.315887 282.777771,479.280945 292.987915,480.015625 
	C292.984192,480.089355 292.999756,480.236206 292.999756,480.236206 
z"/>
<path fill="#DA4300" opacity="1.000000" stroke="none" 
	d="
M281.930969,843.378296 
	C283.224487,844.142761 284.579285,845.256653 285.940491,846.726929 
	C284.628693,845.964783 283.310486,844.846252 281.930969,843.378296 
z"/>
<path fill="#DA4300" opacity="1.000000" stroke="none" 
	d="
M285.951233,847.412781 
	C286.930389,848.145752 287.944580,849.239685 288.965973,850.690796 
	C287.977539,849.956604 286.981903,848.865234 285.951233,847.412781 
z"/>
<path fill="#DA4300" opacity="1.000000" stroke="none" 
	d="
M279.029785,840.291138 
	C279.608978,840.504883 280.298370,841.003235 280.979340,841.815918 
	C280.360626,841.612061 279.750305,841.093872 279.029785,840.291138 
z"/>
<path fill="#DB6852" opacity="1.000000" stroke="none" 
	d="
M293.076019,104.923233 
	C294.408508,104.948219 295.751434,104.874184 297.071838,105.013588 
	C309.675629,106.344223 322.474457,106.741791 334.833557,109.277596 
	C357.630646,113.955040 378.819000,123.295395 398.039337,136.355057 
	C423.022217,153.330139 443.240479,174.997650 457.764832,201.641785 
	C465.429199,215.701645 471.116150,230.503204 475.298096,246.071487 
	C479.708801,262.491516 481.628510,279.150848 481.373291,295.873352 
	C481.178192,308.660278 478.665741,321.492126 476.328857,334.146057 
	C473.305756,350.515961 467.404572,366.084442 459.043793,380.415039 
	C452.230957,392.092377 444.828430,403.648102 436.128418,413.939850 
	C427.315887,424.364746 417.061676,433.739319 406.539429,442.492645 
	C399.245483,448.560394 390.599091,453.102325 382.251190,457.780273 
	C368.812622,465.310852 354.449707,470.715576 339.561920,474.631683 
	C324.617706,478.562622 309.372131,480.229065 293.462677,480.161926 
	C292.999756,480.236206 292.984192,480.089355 292.991364,479.553101 
	C292.999146,383.786499 292.993988,288.556122 293.003845,193.325760 
	C293.006897,163.858246 293.050812,134.390732 293.076019,104.923233 
z"/>
<path fill="#FF825A" opacity="1.000000" stroke="none" 
	d="
M293.056061,104.702362 
	C293.050812,134.390732 293.006897,163.858246 293.003845,193.325760 
	C292.993988,288.556122 292.999146,383.786499 292.995117,479.479370 
	C282.777771,479.280945 272.460480,479.315887 262.371063,477.816986 
	C240.103760,474.508881 219.235168,466.528961 199.711655,455.578033 
	C180.091705,444.573059 162.591644,430.460144 148.664856,412.743805 
	C140.305557,402.109924 133.803787,390.001740 126.624222,378.458496 
	C119.281677,366.653259 115.357643,353.431366 111.720673,340.197479 
	C106.430626,320.948425 103.858238,301.201355 105.333534,281.310425 
	C106.242119,269.060211 108.718132,256.808868 111.722092,244.867920 
	C114.215950,234.954651 118.438156,225.467575 122.022606,215.839310 
	C127.186195,201.969330 134.800430,189.361191 144.215942,178.138885 
	C152.805588,167.900940 162.520004,158.552658 172.229248,149.328629 
	C177.900040,143.941238 184.120499,138.869568 190.829666,134.899719 
	C200.845261,128.973450 211.258087,123.547295 221.973282,119.025246 
	C231.685394,114.926521 241.834335,111.342445 252.141251,109.303856 
	C265.371063,106.687149 278.951263,105.841873 292.675659,104.138115 
	C292.970795,104.042801 293.036102,104.481499 293.056061,104.702362 
z"/>
</svg>